<?xml version="1.0" encoding="UTF-8" standalone="no"?>
<!DOCTYPE svg PUBLIC "-//W3C//DTD SVG 1.1//EN" "http://www.w3.org/Graphics/SVG/1.1/DTD/svg11.dtd">
<svg width="100%" height="100%" viewBox="0 0 32 32" version="1.1" xmlns="http://www.w3.org/2000/svg" xmlns:xlink="http://www.w3.org/1999/xlink" xml:space="preserve" xmlns:serif="http://www.serif.com/" style="fill-rule:evenodd;clip-rule:evenodd;stroke-linejoin:round;stroke-miterlimit:2;">
    <path d="M32,6.493L32,25.507C32,29.091 29.091,32 25.507,32L6.493,32C2.909,32 0,29.091 0,25.507L0,6.493C0,2.909 2.909,0 6.493,0L25.507,0C29.091,0 32,2.909 32,6.493Z" style="fill:rgb(13,17,23);"/>
    <rect x="5" y="7" width="7" height="3" style="fill:rgb(36,227,198);"/>
    <rect x="5" y="22" width="7" height="3" style="fill:rgb(36,227,198);"/>
    <g transform="matrix(0.75,0,0,1,1.25,0)">
        <rect x="1" y="10" width="4" height="12" style="fill:rgb(36,227,198);"/>
    </g>
    <rect x="12" y="10" width="3" height="3" style="fill:rgb(36,227,198);"/>
    <rect x="12" y="19" width="3" height="3" style="fill:rgb(36,227,198);"/>
    <g transform="matrix(0.5,0,0,1,9,0)">
        <rect x="18" y="7" width="2" height="18" style="fill:rgb(36,227,198);"/>
    </g>
    <g transform="matrix(2,0,0,1,-21,-0)">
        <rect x="20" y="18" width="1" height="7" style="fill:rgb(36,227,198);"/>
    </g>
    <g transform="matrix(2,0,0,1,-21,0)">
        <rect x="20" y="7" width="1" height="7" style="fill:rgb(36,227,198);"/>
    </g>
    <g transform="matrix(1,0,0,1.142857,-3,0.857143)">
        <rect x="24" y="11.5" width="3" height="3.5" style="fill:rgb(36,227,198);"/>
    </g>
    <g transform="matrix(1,0,0,0.857143,0,1.142857)">
        <rect x="24" y="11.5" width="3" height="3.5" style="fill:rgb(36,227,198);"/>
    </g>
    <g transform="matrix(1,0,0,1.142857,3,-6.142857)">
        <rect x="24" y="11.5" width="3" height="3.5" style="fill:rgb(36,227,198);"/>
    </g>
    <g transform="matrix(1,0,0,-0.857143,0,30.857143)">
        <rect x="24" y="11.5" width="3" height="3.5" style="fill:rgb(36,227,198);"/>
    </g>
    <g transform="matrix(1,0,-0,-1.142857,3,38.142857)">
        <rect x="24" y="11.5" width="3" height="3.5" style="fill:rgb(36,227,198);"/>
    </g>
</svg>
